IKResults
version=1
nRows=4
nColumns=63
inDegrees=yes

Units are S.I. units (second, meters, Newtons, ...)
If the header above contains a line with 'inDegrees', this indicates whether rotational values are in degrees (yes) or radians (no).

endheader
time	pelvis_tilt	pelvis_list	pelvis_rotation	pelvis_tx	pelvis_ty	pelvis_tz	hip_flexion_r	hip_adduction_r	hip_rotation_r	knee_angle_r	knee_angle_r_beta	ankle_angle_r	subtalar_angle_r	mtp_angle_r	hip_flexion_l	hip_adduction_l	hip_rotation_l	knee_angle_l	knee_angle_l_beta	ankle_angle_l	subtalar_angle_l	mtp_angle_l	L5_S1_Flex_Ext	L5_S1_Lat_Bending	L5_S1_axial_rotation	L4_L5_Flex_Ext	L4_L5_Lat_Bending	L4_L5_axial_rotation	L3_L4_Flex_Ext	L3_L4_Lat_Bending	L3_L4_axial_rotation	L2_L3_Flex_Ext	L2_L3_Lat_Bending	L2_L3_axial_rotation	L1_L2_Flex_Ext	L1_L2_Lat_Bending	L1_L2_axial_rotation	L1_T12_Flex_Ext	L1_T12_Lat_Bending	L1_T12_axial_rotation	Abs_r3	Abs_r2	Abs_r1	Abs_t1	Abs_t2	neck_flexion	neck_bending	neck_rotation	arm_flex_r	arm_add_r	arm_rot_r	elbow_flex_r	pro_sup_r	wrist_flex_r	wrist_dev_r	arm_flex_l	arm_add_l	arm_rot_l	elbow_flex_l	pro_sup_l	wrist_flex_l	wrist_dev_l
      6.03333333	     -5.73323905	     -2.20567462	      0.92051183	      0.25974311	      0.94289824	     -0.31677722	      2.06816355	     -2.50696925	     -4.74189258	      5.89205251	      0.10283572	     13.14793457	    -11.23478624	      0.00000000	      1.22962216	     -5.91344408	    -19.86967636	      7.27378337	      0.12695147	     22.07956419	      5.02546502	      0.00000000	      0.91615085	      0.03620664	     -0.48351609	      1.70138374	      0.04815483	     -0.51373584	      1.50514423	      0.08803283	     -0.51373584	      1.04706880	      0.08803283	     -0.42307658	      0.85073768	      0.07383258	     -0.39285682	      0.52348859	      0.05608409	     -0.36263707	      6.54397389	      0.40957676	     -2.68917143	      0.00000000	      0.00000000	     20.86125945	     -1.39343534	     -6.31517910	     -9.95279947	     -9.92516605	      6.59662957	     24.05732228	     89.99559364	      0.00000000	      0.00000000	    -10.79617195	    -12.27379131	     -7.97931551	     30.40623238	     89.99559364	      0.00000000	      0.00000000
      6.06666667	     -5.52681578	     -2.32460311	      1.03386816	      0.26279394	      0.94303121	     -0.31324511	      1.31753319	     -2.07554147	     -4.67427701	      5.16517435	      0.09014930	     12.82159436	    -11.40052394	      0.00000000	      0.81622187	     -6.31391290	    -19.88798357	      7.26747677	      0.12684140	     22.22574328	      5.34556298	      0.00000000	      0.90313787	      0.06263302	     -0.43851342	      1.67721733	      0.08330192	     -0.46592051	      1.48376520	      0.15228593	     -0.46592051	      1.03219627	      0.15228593	     -0.38369924	      0.83865382	      0.12772126	     -0.35629216	      0.51605298	      0.09701855	     -0.32888507	      6.45102347	      0.70851727	     -2.43888010	      0.00000000	      0.00000000	     20.80765818	     -1.66376562	     -6.10348394	    -10.10539852	    -10.08260163	      6.61551936	     24.16053697	     89.99559364	      0.00000000	      0.00000000	    -10.29540165	    -11.56736175	     -7.85860027	     29.07376880	     89.99559364	      0.00000000	      0.00000000
      6.10000000	     -5.52543207	     -2.20193981	      1.07478194	      0.26586095	      0.94284627	     -0.30961880	      1.06077096	     -1.94219357	     -4.74294738	      5.06323649	      0.08837015	     13.03703221	    -11.50054677	      0.00000000	      0.63884177	     -6.44535104	    -19.87528690	      7.32531608	      0.12785088	     22.19270842	      5.35652493	      0.00000000	      0.92429945	      0.05596844	     -0.41215415	      1.71651651	      0.07443803	     -0.43791378	      1.51853157	      0.13608167	     -0.43791378	      1.05638184	      0.13608167	     -0.36063488	      0.85830447	      0.11413085	     -0.33487525	      0.52814471	      0.08669512	     -0.30911561	      6.60217855	      0.63312620	     -2.29227774	      0.00000000	      0.00000000	     20.91248396	     -1.65853104	     -6.09400400	    -10.21141216	    -10.06820742	      6.62597781	     24.07655642	     89.99559364	      0.00000000	      0.00000000	    -10.46738718	    -11.10801174	     -7.76442184	     28.85041213	     89.99559364	      0.00000000	      0.00000000
      6.13333333	     -5.36059715	     -2.26643407	      1.13067423	      0.26869180	      0.94294653	     -0.30644274	      0.34128239	     -1.58775719	     -4.61991019	      4.34030429	      0.07575260	     12.93776205	    -11.50930179	      0.00000000	      0.22427457	     -6.72243161	    -19.84352391	      7.20138955	      0.12568796	     22.24801061	      5.47044497	      0.00000000	      0.91711791	      0.07469166	     -0.35392645	      1.70317967	      0.09933991	     -0.37604685	      1.50673301	      0.18160531	     -0.37604685	      1.04817406	      0.18160531	     -0.30968564	      0.85163569	      0.15231124	     -0.28756524	      0.52404117	      0.11569739	     -0.26544484	      6.55088152	      0.84492704	     -1.96843274	      0.00000000	      0.00000000	     20.95679791	     -1.74902557	     -5.98884211	    -10.36877051	    -10.14603033	      6.64629064	     24.02855645	     89.99559364	      0.00000000	      0.00000000	    -10.03487675	    -10.50053785	     -7.65857677	     27.46950794	     89.99559364	      0.00000000	      0.00000000
